<?xml version="1.0" encoding="UTF-8" standalone="no"?>
<svg
   height="97"
   viewBox="0 0 72.749998 72.749998"
   width="97"
   version="1.1"
   id="svg10"
   sodipodi:docname="Poweroff_1.svg"
   inkscape:version="1.1 (c4e8f9e, 2021-05-24)"
   xmlns:inkscape="http://www.inkscape.org/namespaces/inkscape"
   xmlns:sodipodi="http://sodipodi.sourceforge.net/DTD/sodipodi-0.dtd"
   xmlns="http://www.w3.org/2000/svg"
   xmlns:svg="http://www.w3.org/2000/svg">
  <defs
     id="defs14" />
  <sodipodi:namedview
     id="namedview12"
     pagecolor="#ffffff"
     bordercolor="#666666"
     borderopacity="1.0"
     inkscape:pageshadow="2"
     inkscape:pageopacity="0.0"
     inkscape:pagecheckerboard="0"
     inkscape:document-units="pt"
     showgrid="false"
     units="px"
     width="96px"
     inkscape:zoom="1.3351293"
     inkscape:cx="-4.1194512"
     inkscape:cy="308.95884"
     inkscape:current-layer="svg10" />
  <path
     d="m 37.00978,33.509243 c 1.313962,0 2.379312,-1.06534 2.379312,-2.379312 V 9.716145 c 0,-1.3139699 -1.06535,-2.3793109 -2.379312,-2.3793109 -1.313962,0 -2.379312,1.065341 -2.379312,2.3793109 v 21.413786 c 0,1.313972 1.06535,2.379312 2.379312,2.379312 z m 0,0"
     fill="#f1f2f2"
     id="path2"
     style="stroke-width:0.148706" />
  <path
     d="m 47.60863,15.921173 c -0.65872,-0.356088 -1.446402,-0.383966 -2.128362,-0.07494 -0.68196,0.309618 -1.179786,0.920124 -1.345922,1.650298 v 0.01572 c -0.230028,1.046758 0.268956,2.118492 1.218704,2.616892 7.249464,3.832692 10.953778,12.113228 8.979342,20.072532 -1.974434,7.959302 -9.119336,13.54859 -17.319708,13.54859 -8.200372,0 -15.345274,-5.589288 -17.31971,-13.54859 -1.974424,-7.959304 1.729888,-16.23984 8.979928,-20.072532 0.949748,-0.497816 1.448732,-1.569558 1.219278,-2.616892 v -0.01456 c -0.164392,-0.729014 -0.659304,-1.33953 -1.33952,-1.649724 -0.67964,-0.310768 -1.465004,-0.285794 -2.123724,0.06737 -9.170454,4.865497 -13.847753,15.351657 -11.341222,25.425389 2.50652,10.074316 11.553244,17.145445 21.93485,17.145445 10.381012,0 19.427736,-7.071129 21.934266,-17.145445 C 61.463352,31.266983 56.786052,20.780823 47.615598,15.915327 Z m 0,0"
     fill="#f1f2f2"
     id="path4"
     style="stroke-width:0.148706" />
  <path
     d="m 37.00978,1.3885549 v 5.9482792 c 1.313962,0 2.379312,1.065341 2.379312,2.3793109 v 21.413786 c 0,1.313972 -1.06535,2.379312 -2.379312,2.379312 v 20.199166 c 0.291602,0 0.57798,0.01802 0.87191,0 8.025524,-0.391518 14.79866,-6.100472 16.542482,-13.944182 1.744398,-7.843124 -1.97153,-15.884336 -9.075186,-19.639766 -0.949172,-0.4984 -1.448148,-1.570134 -1.218118,-2.617478 v -0.01504 c 0.166126,-0.730183 0.663952,-1.341273 1.345912,-1.650298 0.68196,-0.309033 1.469642,-0.281731 2.127788,0.07494 9.176262,4.863178 13.857624,15.352826 11.349934,25.430622 -2.50768,10.07715 -11.559638,17.14945 -21.944722,17.144802 v 11.896548 c 19.05365,0 34.5,-15.44635 34.5,-34.5 0,-19.05365 -15.44635,-34.5000001 -34.5,-34.5000001 z m 0,0"
     fill="#ff4764"
     id="path6"
     style="stroke-width:0.148706" />
  <path
     d="M 34.42135,58.347939 C 24.579976,57.218697 16.620673,49.813559 14.785646,40.079069 12.95063,30.345153 17.667432,20.550247 26.42197,15.915365 c 0.658136,-0.353184 1.444084,-0.378158 2.123714,-0.06738 0.67964,0.310194 1.175138,0.92071 1.33953,1.649724 v 0.01456 c 0.229444,1.047334 -0.269532,2.119076 -1.219862,2.616892 -7.245978,3.82746 -10.948546,12.102764 -8.971792,20.05626 1.976178,7.95292 9.12108,13.532912 17.31622,13.523041 V 33.509311 c -1.313962,0 -2.379312,-1.065342 -2.379312,-2.379312 V 9.716213 c 0,-1.3139708 1.06535,-2.3793118 2.379312,-2.3793118 V 1.3885549 c -19.05365,0 -34.5000001,15.4463501 -34.5000001,34.5000001 0,19.05365 15.4463501,34.5 34.5000001,34.5 V 58.492007 c -0.864944,-5.86e-4 -1.729302,-0.0482 -2.58843,-0.144068 z m 0,0"
     fill="#ff3051"
     id="path8"
     style="stroke-width:0.148706" />
</svg>
